Coordinates
version=1
nRows=19
nColumns=24
inDegrees=yes

Units are S.I. units (second, meters, Newtons, ...)
Angles are in degrees.

endheader
time	torso_tilt	torso_list	torso_rotation	torso_tx	torso_ty	torso_tz	lumbar_extension	lumbar_bending	lumbar_rotation	hip_flexion_r	hip_adduction_r	hip_rotation_r	knee_angle_r	ankle_angle_r	subtalar_angle_r	mtp_angle_r	hip_flexion_l	hip_adduction_l	hip_rotation_l	knee_angle_l	ankle_angle_l	subtalar_angle_l	mtp_angle_l
      0.00000000	    -15.81149332	      2.54026260	     -0.74317396	      0.14777622	      1.25011381	      0.03228841	     10.97175698	     -2.26646003	      3.67413075	      4.89711567	     -0.70016174	     -7.10556393	     -1.91673311	      3.66942550	     -6.19100451	      0.00000000	      9.26017537	     -4.01444638	     -3.74849191	     -8.67644121	      5.72230823	      1.79910598	      0.00000000
      0.01000000	    -15.77245604	      2.53004509	     -0.66642353	      0.14793975	      1.25017952	      0.03259227	     10.92473590	     -2.27523950	      3.65178399	      4.88546672	     -0.67440326	     -7.08988950	     -1.93986835	      3.63397420	     -6.34992643	      0.00000000	      9.11696255	     -4.02306951	     -3.64285796	     -8.41148973	      5.60748398	      1.75697300	      0.00000000
      0.02000000	    -15.69731960	      2.51146164	     -0.58287614	      0.14813281	      1.25042860	      0.03293819	     10.78101206	     -2.27098423	      3.61809885	      4.92974136	     -0.66116283	     -7.10012535	     -1.95210835	      3.63909944	     -6.37254377	      0.00000000	      9.01863127	     -4.03319772	     -3.65622642	     -8.11222911	      5.48495794	      1.83726024	      0.00000000
      0.03000000	    -15.62349815	      2.49531585	     -0.49459778	      0.14826959	      1.25055301	      0.03331045	     10.66645444	     -2.26759121	      3.56670519	      4.95093234	     -0.64187893	     -7.11149286	     -1.98002629	      3.68074937	     -6.41470770	      0.00000000	      8.87478754	     -4.04407916	     -3.67316012	     -7.79034852	      5.35865997	      1.88435799	      0.00000000
      0.04000000	    -15.57259325	      2.47982654	     -0.42257462	      0.14833457	      1.25052336	      0.03371086	     10.60030411	     -2.28252866	      3.56792115	      4.96088022	     -0.59814109	     -7.16066861	     -2.02909969	      3.74491064	     -6.46636677	      0.00000000	      8.73237726	     -4.07524793	     -3.63675025	     -7.49657231	      5.28783901	      1.91727507	      0.00000000
      0.05000000	    -15.49734007	      2.46148226	     -0.34857222	      0.14839343	      1.25066131	      0.03414013	     10.50157575	     -2.28479399	      3.56925398	      4.96785695	     -0.56679791	     -7.24508817	     -2.06143002	      3.77456282	     -6.48485855	      0.00000000	      8.57979013	     -4.09909318	     -3.61770207	     -7.17132148	      5.16393542	      1.97467682	      0.00000000
      0.06000000	    -15.42125207	      2.44334288	     -0.28213264	      0.14846079	      1.25078396	      0.03462135	     10.41464289	     -2.29715270	      3.58866782	      4.96449505	     -0.51994683	     -7.33002331	     -2.10705718	      3.81786360	     -6.49334531	      0.00000000	      8.40665017	     -4.13826397	     -3.61393073	     -6.82655408	      5.02636824	      2.03637243	      0.00000000
      0.07000000	    -15.34136947	      2.43263586	     -0.21940894	      0.14853842	      1.25085711	      0.03514124	     10.33249869	     -2.31133927	      3.59466128	      4.94094797	     -0.47517113	     -7.40859186	     -2.12993390	      3.87022180	     -6.48303266	      0.00000000	      8.20534082	     -4.17738673	     -3.60295521	     -6.45972373	      4.90276474	      2.10035009	      0.00000000
      0.08000000	    -15.26650575	      2.42583848	     -0.15486848	      0.14856681	      1.25088952	      0.03569397	     10.30335326	     -2.31823130	      3.59003813	      4.87146958	     -0.43380347	     -7.51352748	     -2.16890158	      3.94478708	     -6.45302254	      0.00000000	      7.94246732	     -4.20595836	     -3.64031958	     -6.08018309	      4.76519228	      2.14009348	      0.00000000
      0.09000000	    -15.17284574	      2.42046050	     -0.09539251	      0.14865326	      1.25109708	      0.03628192	     10.19818074	     -2.34415052	      3.60158770	      4.86065405	     -0.37877863	     -7.61757102	     -2.20215012	      3.95949150	     -6.44003554	      0.00000000	      7.75872720	     -4.25697990	     -3.64138307	     -5.72781750	      4.61101066	      2.20588059	      0.00000000
      0.10000000	    -15.07929011	      2.40693802	     -0.03458019	      0.14869092	      1.25118344	      0.03690554	     10.08737239	     -2.37187962	      3.62298209	      4.85555124	     -0.30716576	     -7.67420994	     -2.23245150	      4.04012936	     -6.47041096	      0.00000000	      7.60023022	     -4.32357475	     -3.60413396	     -5.40421229	      4.51817901	      2.28860324	      0.00000000
      0.11000000	    -15.00337924	      2.39454069	     -0.00260265	      0.14865682	      1.25112685	      0.03754700	     10.06744889	     -2.38678876	      3.64549132	      4.77475879	     -0.23456854	     -7.69545851	     -2.25936200	      4.11762532	     -6.48908389	      0.00000000	      7.35260238	     -4.38456592	     -3.59607560	     -5.06376840	      4.41868925	      2.30417177	      0.00000000
      0.12000000	    -14.90192811	      2.37956334	      0.03896820	      0.14864284	      1.25124798	      0.03821104	      9.95485558	     -2.41330809	      3.66617980	      4.78166541	     -0.15287295	     -7.73834618	     -2.31698513	      4.16966096	     -6.53115064	      0.00000000	      7.20894432	     -4.46098747	     -3.55232911	     -4.78638845	      4.32394332	      2.35706693	      0.00000000
      0.13000000	    -14.80913392	      2.35968951	      0.06486586	      0.14861090	      1.25133347	      0.03890325	      9.87955767	     -2.42539443	      3.69260259	      4.75109904	     -0.07263093	     -7.74146697	     -2.35926929	      4.22925412	     -6.58704560	      0.00000000	      7.04574172	     -4.53229821	     -3.50664878	     -4.52588414	      4.22842348	      2.35884182	      0.00000000
      0.14000000	    -14.72824369	      2.34943545	      0.08990562	      0.14853014	      1.25136686	      0.03961614	      9.82225494	     -2.45296005	      3.69553898	      4.79806632	      0.01082703	     -7.77388174	     -2.54625933	      4.32944825	     -6.61870858	      0.00000000	      6.89975143	     -4.61511310	     -3.45426274	     -4.31006042	      4.16319799	      2.33906834	      0.00000000
      0.15000000	    -14.64588215	      2.32722958	      0.12524760	      0.14843577	      1.25137694	      0.04036160	      9.75343183	     -2.45846981	      3.69839529	      4.80967951	      0.08806967	     -7.76331055	     -2.64757339	      4.41837459	     -6.67410760	      0.00000000	      6.79195335	     -4.68983875	     -3.35601016	     -4.14879035	      4.11239227	      2.30036155	      0.00000000
      0.16000000	    -14.56002773	      2.30278105	      0.14215646	      0.14836578	      1.25151918	      0.04114454	      9.67872112	     -2.45375703	      3.71209584	      4.80677630	      0.15972810	     -7.75714244	     -2.71483908	      4.43744204	     -6.69272076	      0.00000000	      6.71873079	     -4.76593670	     -3.29063504	     -4.04923043	      4.10298787	      2.29420032	      0.00000000
      0.17000000	    -14.48990487	      2.28822301	      0.15917523	      0.14824150	      1.25152796	      0.04200759	      9.64059515	     -2.45307951	      3.74824923	      4.78880618	      0.22632129	     -7.74285401	     -2.79149138	      4.54073668	     -6.77790191	      0.00000000	      6.67253785	     -4.83328892	     -3.14021233	     -4.02608070	      4.03446518	      2.20192096	      0.00000000
      0.18000000	    -14.43823671	      2.28149616	      0.17807461	      0.14808820	      1.25141614	      0.04285644	      9.63921722	     -2.46711408	      3.75877788	      4.75859852	      0.30116708	     -7.73847019	     -2.86812003	      4.60647613	     -6.80268958	      0.00000000	      6.64131941	     -4.91185966	     -2.99497465	     -4.07317741	      4.08815158	      2.12826348	      0.00000000
